<?xml version="1.0" encoding="UTF-8"?>
<svg width="128px" height="128px" viewBox="0 0 128 128" version="1.1" xmlns="http://www.w3.org/2000/svg" xmlns:xlink="http://www.w3.org/1999/xlink">
    <title>VS Code</title>
    <defs>
        <path d="M68.0754245,94.5939403 C69.5874245,95.1798811 71.3114885,95.1423526 72.8376005,94.4118364 L92.6023685,84.9517 C94.6792325,83.9576251 96,81.866821 96,79.5730958 L96,15.4271888 C96,13.1334636 94.6793285,11.0426596 92.6024645,10.0485846 L72.8376005,0.58811974 C70.8347525,-0.370513208 68.4908165,-0.135708129 66.7329605,1.13547592 C66.4819205,1.31706409 66.2426885,1.51981335 66.0182405,1.74324625 L28.1808965,36.080456 L11.6997125,23.6359941 C10.1654405,22.4775769 8.01948527,22.5724962 6.59455727,23.8618334 L1.30850927,28.644852 C-0.434449446,30.2219075 -0.436447206,32.9494543 1.30418927,34.5291835 L15.5972165,47.5 L1.30418927,60.4708147 C-0.436447206,62.0504484 -0.434449446,64.7780907 1.30850927,66.3551461 L6.59455727,71.1381648 C8.01948527,72.427502 10.1654405,72.5224213 11.6997125,71.3639086 L28.1808965,58.9195421 L66.0182405,93.256666 C66.6168005,93.8524425 67.3196165,94.3010654 68.0754245,94.5939403 Z M72,25.9090909 L43.2,47.5000476 L72,69.0909091 L72,25.9090909 Z" id="path-1"></path>
        <linearGradient x1="49.999991%" y1="-5.69966671e-07%" x2="49.999991%" y2="100.000047%" id="linearGradient-3">
            <stop stop-color="#FFFFFF" offset="0%"></stop>
            <stop stop-color="#FFFFFF" stop-opacity="0" offset="100%"></stop>
        </linearGradient>
    </defs>
    <g id="VS-Code" stroke="none" stroke-width="1" fill="none" fill-rule="evenodd">
        <g id="Visual_Studio_Code_1.35_icon" transform="translate(16, 16)">
            <mask id="mask-2" fill="white">
                <use xlink:href="#path-1"></use>
            </mask>
            <g id="Shape"></g>
            <g id="Group" mask="url(#mask-2)">
                <path d="M92.6050075,10.0342917 L72.8367029,0.587387697 C70.5484937,-0.506090332 67.8139638,-0.0448377472 66.0182233,1.73749864 L1.30419397,60.3004858 C-0.436450126,61.8755954 -0.434448782,64.5955901 1.30851135,66.1682239 L6.59455283,70.9378322 C8.01948834,72.2235543 10.1654832,72.3182075 11.6996867,71.1630383 L89.6303356,12.4850865 C92.2448424,10.5165089 96,12.3672937 96,15.6244501 L96,15.3966729 C96,13.110331 94.6804181,11.0261508 92.6050075,10.0342917 Z" id="Path" fill="#0065A9" fill-rule="nonzero"></path>
                <path d="M92.6050075,84.9656137 L72.8367029,94.4125432 C70.5484937,95.5061958 67.8139638,95.0447382 66.0182233,93.2624226 L1.30419397,34.6995916 C-0.436450126,33.1243891 -0.434448782,30.4043987 1.30851135,28.8317673 L6.59455283,24.0621663 C8.01948834,22.7764461 10.1654832,22.681793 11.6996867,23.8369605 L89.6303356,82.5148227 C92.2448424,84.4833972 96,82.6326153 96,79.375559 L96,79.6033359 C96,81.8895791 94.6804181,83.9737561 92.6050075,84.9656137 Z" id="Path" fill="#007ACC" fill-rule="nonzero"></path>
                <path d="M73.0089001,94.411721 C70.7369503,95.5076846 68.0226478,95.0440701 66.24,93.2565522 C68.4364308,95.4589836 72.192,93.899119 72.192,90.784451 L72.192,4.21538617 C72.192,1.10067993 68.4364308,-0.459180821 66.24,1.74324672 C68.0226478,-0.0442597114 70.7369503,-0.507461662 73.0089001,0.588119028 L92.6275492,10.0485921 C94.6890363,11.0426656 96,13.1334666 96,15.4271885 L96,79.573002 C96,81.8667239 94.6890363,83.9575249 92.627454,84.9515984 L73.0089001,94.411721 Z" id="Path" fill="#1F9CF0" fill-rule="nonzero"></path>
                <g opacity="0.25" style="mix-blend-mode: overlay;" transform="translate(0, 0)" fill="url(#linearGradient-3)" id="Shape">
                    <path d="M68.075419,94.5940113 C69.5874192,95.1798567 71.3115796,95.1423282 72.8375958,94.4119075 L92.6023674,84.9517698 C94.6792318,83.9576948 96,81.8668905 96,79.5730695 L96,15.4272497 C96,13.1334287 94.6793278,11.0426243 92.6024634,10.0485493 L72.8375958,0.588120421 C70.8348435,-0.370512651 68.490811,-0.135707542 66.7329547,1.13546807 C66.4819147,1.31706582 66.2426826,1.51981511 66.0182346,1.74324804 L28.1808838,36.0804241 L11.6996968,23.636056 C10.1655205,22.4775431 8.01948816,22.572558 6.5945599,23.8617998 L1.30851095,28.6448191 C-0.434450004,30.2219703 -0.436447764,32.9495174 1.30419095,34.5291513 L15.5972015,47.4999686 L1.30419095,60.4708813 C-0.436447764,62.0505153 -0.434450004,64.7780624 1.30851095,66.3551181 L6.5945599,71.1381374 C8.01948816,72.4274747 10.1655205,72.522394 11.6996968,71.3639767 L28.1808838,58.9195131 L66.0182346,93.2567369 C66.6167947,93.852418 67.3196108,94.3011364 68.075419,94.5940113 Z M72,25.9090909 L43.2,47.4999524 L72,69.0909091 L72,25.9090909 Z"></path>
                </g>
            </g>
        </g>
    </g>
</svg>